<svg width="16" height="16" viewBox="0 0 16 16" fill="none" xmlns="http://www.w3.org/2000/svg">
<path fill-rule="evenodd" clip-rule="evenodd" d="M8.00001 1.33337C4.32001 1.33337 1.33334 4.32004 1.33334 8.00004C1.33334 11.68 4.32001 14.6667 8.00001 14.6667C11.68 14.6667 14.6667 11.68 14.6667 8.00004C14.6667 4.32004 11.68 1.33337 8.00001 1.33337ZM8.00001 13.3334C5.05334 13.3334 2.66668 10.9467 2.66668 8.00004C2.66668 5.05337 5.05334 2.66671 8.00001 2.66671C10.9467 2.66671 13.3333 5.05337 13.3333 8.00004C13.3333 10.9467 10.9467 13.3334 8.00001 13.3334ZM4.66668 8.00004C4.66668 6.15909 6.15906 4.66671 8.00001 4.66671C9.84096 4.66671 11.3333 6.15909 11.3333 8.00004C11.3333 9.84099 9.84096 11.3334 8.00001 11.3334C6.15906 11.3334 4.66668 9.84099 4.66668 8.00004Z" fill="black" fill-opacity="0.54"/>
</svg>